<?xml version="1.0" encoding="UTF-8"?>
<svg xmlns="http://www.w3.org/2000/svg" xmlns:xlink="http://www.w3.org/1999/xlink" viewBox="0 0 1200 520" width="1200" height="520" role="img" aria-label="Diagrama: como a Alia Flow funciona, do pedido a memoria">
<rect x="0" y="0" width="1200" height="520" fill="#ffffff"/>
<defs>
  <symbol id="ic-cliente" viewBox="0 0 32 32"><circle cx="16" cy="16" r="3" fill="currentColor"/>
    <g fill="currentColor" opacity=".8"><rect x="15" y="3" width="2" height="2"/><rect x="26" y="9" width="2" height="2"/><rect x="27" y="21" width="2" height="2"/><rect x="15" y="27" width="2" height="2"/><rect x="4" y="21" width="2" height="2"/><rect x="3" y="9" width="2" height="2"/></g></symbol>
  <symbol id="ic-projeto" viewBox="0 0 32 32" fill="currentColor"><rect x="5" y="20" width="22" height="3"/><rect x="5" y="14" width="16" height="3"/><rect x="5" y="8" width="10" height="3" opacity=".7"/><rect x="5" y="26" width="22" height="1" opacity=".4"/></symbol>
  <symbol id="ic-tarefa" viewBox="0 0 32 32" fill="none" stroke="currentColor" stroke-width="2.6"><rect x="7" y="7" width="18" height="18"/><path d="M11 16l4 4 7-8"/></symbol>
  <symbol id="ic-time" viewBox="0 0 32 32" fill="currentColor"><circle cx="11" cy="13" r="6"/><circle cx="21" cy="13" r="6" opacity=".78"/><circle cx="16" cy="22.5" r="6" opacity=".55"/></symbol>
  <symbol id="ic-contexto" viewBox="0 0 32 32" fill="currentColor"><rect x="6" y="5" width="20" height="2.4" opacity=".45"/><rect x="6" y="10.4" width="14" height="2.4" opacity=".7"/><path d="M16 14v11m0 0l-5-5m5 5l5-5" fill="none" stroke="currentColor" stroke-width="2.4"/><rect x="6" y="26" width="20" height="2.4"/></symbol>
  <symbol id="ic-qa" viewBox="0 0 32 32" fill="currentColor"><rect x="6" y="6" width="3" height="22"/><rect x="23" y="6" width="3" height="22"/><rect x="6" y="6" width="20" height="3"/><rect x="14" y="14" width="4" height="4"/></symbol>
  <symbol id="ic-memoria" viewBox="0 0 32 32" fill="currentColor"><rect x="6" y="9" width="20" height="2.4" opacity=".4"/><rect x="6" y="14" width="20" height="2.4" opacity=".6"/><rect x="6" y="19" width="20" height="2.4" opacity=".8"/><rect x="6" y="24" width="20" height="2.4"/></symbol>
</defs>
<text x="40" y="42" font-family="'JetBrains Mono','Courier New',monospace" font-weight="700" font-size="16" letter-spacing="0.14em" fill="#141414" text-anchor="start">COMO A ALIA FLOW FUNCIONA</text>
<rect x="40" y="54" width="56" height="3" fill="#f5569b"/>
<text x="40" y="96" font-family="'Instrument Serif',Georgia,serif" font-size="22" fill="#141414" text-anchor="start">cliente <tspan fill="#9a9a9a">&gt;</tspan> projeto <tspan fill="#9a9a9a">&gt;</tspan> <tspan fill="#f5569b" font-style="italic">tarefa</tspan></text>
<text x="40" y="116" font-family="'JetBrains Mono','Courier New',monospace" font-weight="500" font-size="11" letter-spacing="0.02em" fill="#9a9a9a" text-anchor="start">a tarefa é a menor unidade de trabalho</text>
<path d="M 290.0 310.0 L 289.9 369.6 L 289.4 388.6 L 288.7 402.2 L 287.6 413.2 L 286.3 422.4 L 284.6 430.3 L 282.6 437.3 L 280.2 443.4 L 277.5 448.8 L 274.5 453.6 L 271.0 457.9 L 267.0 461.6 L 262.6 464.8 L 257.5 467.6 L 251.7 469.9 L 245.0 471.7 L 237.1 473.2 L 227.1 474.2 L 213.4 474.8 L 170.0 475.0 L 126.6 474.8 L 112.9 474.2 L 102.9 473.2 L 95.0 471.7 L 88.3 469.9 L 82.5 467.6 L 77.4 464.8 L 73.0 461.6 L 69.0 457.9 L 65.5 453.6 L 62.5 448.8 L 59.8 443.4 L 57.4 437.3 L 55.4 430.3 L 53.7 422.4 L 52.4 413.2 L 51.3 402.2 L 50.6 388.6 L 50.1 369.6 L 50.0 310.0 L 50.1 250.4 L 50.6 231.4 L 51.3 217.8 L 52.4 206.8 L 53.7 197.6 L 55.4 189.7 L 57.4 182.7 L 59.8 176.6 L 62.5 171.2 L 65.5 166.4 L 69.0 162.1 L 73.0 158.4 L 77.4 155.2 L 82.5 152.4 L 88.3 150.1 L 95.0 148.3 L 102.9 146.8 L 112.9 145.8 L 126.6 145.2 L 170.0 145.0 L 213.4 145.2 L 227.1 145.8 L 237.1 146.8 L 245.0 148.3 L 251.7 150.1 L 257.5 152.4 L 262.6 155.2 L 267.0 158.4 L 271.0 162.1 L 274.5 166.4 L 277.5 171.2 L 280.2 176.6 L 282.6 182.7 L 284.6 189.7 L 286.3 197.6 L 287.6 206.8 L 288.7 217.8 L 289.4 231.4 L 289.9 250.4 Z" fill="none" stroke="#1c1c1c" stroke-width="2"/>
<use href="#ic-cliente" x="64.0" y="159.0" width="24" height="24" color="#1c1c1c"/>
<text x="96.0" y="176.0" font-family="'JetBrains Mono','Courier New',monospace" font-weight="700" font-size="12.5" letter-spacing="0.10em" fill="#1c1c1c" text-anchor="start">CLIENTE</text>
<path d="M 265.0 300.0 L 264.9 341.5 L 264.6 354.8 L 264.1 364.3 L 263.3 371.9 L 262.4 378.3 L 261.2 383.9 L 259.7 388.7 L 258.1 393.0 L 256.2 396.8 L 254.0 400.1 L 251.5 403.1 L 248.7 405.7 L 245.6 407.9 L 242.0 409.8 L 237.9 411.4 L 233.1 412.7 L 227.5 413.7 L 220.5 414.4 L 210.7 414.9 L 180.0 415.0 L 149.3 414.9 L 139.5 414.4 L 132.5 413.7 L 126.9 412.7 L 122.1 411.4 L 118.0 409.8 L 114.4 407.9 L 111.3 405.7 L 108.5 403.1 L 106.0 400.1 L 103.8 396.8 L 101.9 393.0 L 100.3 388.7 L 98.8 383.9 L 97.6 378.3 L 96.7 371.9 L 95.9 364.3 L 95.4 354.8 L 95.1 341.5 L 95.0 300.0 L 95.1 258.5 L 95.4 245.2 L 95.9 235.7 L 96.7 228.1 L 97.6 221.7 L 98.8 216.1 L 100.3 211.3 L 101.9 207.0 L 103.8 203.2 L 106.0 199.9 L 108.5 196.9 L 111.3 194.3 L 114.4 192.1 L 118.0 190.2 L 122.1 188.6 L 126.9 187.3 L 132.5 186.3 L 139.5 185.6 L 149.3 185.1 L 180.0 185.0 L 210.7 185.1 L 220.5 185.6 L 227.5 186.3 L 233.1 187.3 L 237.9 188.6 L 242.0 190.2 L 245.6 192.1 L 248.7 194.3 L 251.5 196.9 L 254.0 199.9 L 256.2 203.2 L 258.1 207.0 L 259.7 211.3 L 261.2 216.1 L 262.4 221.7 L 263.3 228.1 L 264.1 235.7 L 264.6 245.2 L 264.9 258.5 Z" fill="none" stroke="#4a4a4a" stroke-width="2"/>
<use href="#ic-projeto" x="109.0" y="199.0" width="20" height="20" color="#4a4a4a"/>
<text x="137.0" y="213.0" font-family="'JetBrains Mono','Courier New',monospace" font-weight="700" font-size="11.5" letter-spacing="0.10em" fill="#4a4a4a" text-anchor="start">PROJETO</text>
<path d="M 255.0 285.0 L 254.9 303.1 L 254.8 308.8 L 254.4 312.9 L 254.0 316.3 L 253.4 319.0 L 252.7 321.5 L 251.9 323.6 L 250.9 325.4 L 249.8 327.1 L 248.5 328.5 L 247.1 329.8 L 245.4 330.9 L 243.6 331.9 L 241.5 332.7 L 239.0 333.4 L 236.3 334.0 L 232.9 334.4 L 228.8 334.8 L 223.1 334.9 L 205.0 335.0 L 186.9 334.9 L 181.2 334.8 L 177.1 334.4 L 173.7 334.0 L 171.0 333.4 L 168.5 332.7 L 166.4 331.9 L 164.6 330.9 L 162.9 329.8 L 161.5 328.5 L 160.2 327.1 L 159.1 325.4 L 158.1 323.6 L 157.3 321.5 L 156.6 319.0 L 156.0 316.3 L 155.6 312.9 L 155.2 308.8 L 155.1 303.1 L 155.0 285.0 L 155.1 266.9 L 155.2 261.2 L 155.6 257.1 L 156.0 253.7 L 156.6 251.0 L 157.3 248.5 L 158.1 246.4 L 159.1 244.6 L 160.2 242.9 L 161.5 241.5 L 162.9 240.2 L 164.6 239.1 L 166.4 238.1 L 168.5 237.3 L 171.0 236.6 L 173.7 236.0 L 177.1 235.6 L 181.2 235.2 L 186.9 235.1 L 205.0 235.0 L 223.1 235.1 L 228.8 235.2 L 232.9 235.6 L 236.3 236.0 L 239.0 236.6 L 241.5 237.3 L 243.6 238.1 L 245.4 239.1 L 247.1 240.2 L 248.5 241.5 L 249.8 242.9 L 250.9 244.6 L 251.9 246.4 L 252.7 248.5 L 253.4 251.0 L 254.0 253.7 L 254.4 257.1 L 254.8 261.2 L 254.9 266.9 Z" fill="#141414"/>
<use href="#ic-tarefa" x="190" y="255" width="30" height="30" color="#ffffff"/>
<text x="205" y="317" font-family="'JetBrains Mono','Courier New',monospace" font-weight="700" font-size="12" letter-spacing="0.10em" fill="#ffffff" text-anchor="middle">TAREFA</text>
<path d="M 255.0 285 L 326 285" stroke="#f5569b" stroke-width="2.4" fill="none"/>
<path d="M 326 278 L 340 285 L 326 292 Z" fill="#f5569b"/>
<path d="M 515.0 285.0 L 514.9 326.5 L 514.6 339.8 L 514.0 349.3 L 513.3 356.9 L 512.3 363.3 L 511.1 368.9 L 509.6 373.7 L 507.9 378.0 L 505.9 381.8 L 503.7 385.1 L 501.1 388.1 L 498.2 390.7 L 495.0 392.9 L 491.3 394.8 L 487.1 396.4 L 482.2 397.7 L 476.4 398.7 L 469.2 399.4 L 459.1 399.9 L 427.5 400.0 L 395.9 399.9 L 385.8 399.4 L 378.6 398.7 L 372.8 397.7 L 367.9 396.4 L 363.7 394.8 L 360.0 392.9 L 356.8 390.7 L 353.9 388.1 L 351.3 385.1 L 349.1 381.8 L 347.1 378.0 L 345.4 373.7 L 343.9 368.9 L 342.7 363.3 L 341.7 356.9 L 341.0 349.3 L 340.4 339.8 L 340.1 326.5 L 340.0 285.0 L 340.1 243.5 L 340.4 230.2 L 341.0 220.7 L 341.7 213.1 L 342.7 206.7 L 343.9 201.1 L 345.4 196.3 L 347.1 192.0 L 349.1 188.2 L 351.3 184.9 L 353.9 181.9 L 356.8 179.3 L 360.0 177.1 L 363.7 175.2 L 367.9 173.6 L 372.8 172.3 L 378.6 171.3 L 385.8 170.6 L 395.9 170.1 L 427.5 170.0 L 459.1 170.1 L 469.2 170.6 L 476.4 171.3 L 482.2 172.3 L 487.1 173.6 L 491.3 175.2 L 495.0 177.1 L 498.2 179.3 L 501.1 181.9 L 503.7 184.9 L 505.9 188.2 L 507.9 192.0 L 509.6 196.3 L 511.1 201.1 L 512.3 206.7 L 513.3 213.1 L 514.0 220.7 L 514.6 230.2 L 514.9 243.5 Z" fill="none" stroke="#1c1c1c" stroke-width="2"/>
<use href="#ic-time" x="362" y="196" width="34" height="34" color="#141414"/>
<text x="362" y="266" font-family="'JetBrains Mono','Courier New',monospace" font-weight="700" font-size="14" letter-spacing="0.06em" fill="#141414" text-anchor="start">TIME DE</text>
<text x="362" y="286" font-family="'JetBrains Mono','Courier New',monospace" font-weight="700" font-size="14" letter-spacing="0.06em" fill="#141414" text-anchor="start">ESPECIALISTAS</text>
<rect x="362" y="302" width="30" height="2" fill="#d8d8d8"/>
<text x="362" y="326" font-family="'JetBrains Mono','Courier New',monospace" font-weight="500" font-size="10.5" letter-spacing="0.01em" fill="#6e6e6e" text-anchor="start">não agentes genéricos</text>
<text x="362" y="342" font-family="'JetBrains Mono','Courier New',monospace" font-weight="500" font-size="10.5" letter-spacing="0.01em" fill="#6e6e6e" text-anchor="start">- o cliente tem o</text>
<text x="362" y="358" font-family="'JetBrains Mono','Courier New',monospace" font-weight="500" font-size="10.5" letter-spacing="0.01em" fill="#6e6e6e" text-anchor="start">próprio time</text>
<text x="495" y="196" font-family="'JetBrains Mono','Courier New',monospace" font-weight="700" font-size="13" letter-spacing="0.10em" fill="#c4c4c4" text-anchor="end">01</text>
<path d="M 730.0 285.0 L 729.9 326.5 L 729.6 339.8 L 729.0 349.3 L 728.3 356.9 L 727.3 363.3 L 726.1 368.9 L 724.6 373.7 L 722.9 378.0 L 720.9 381.8 L 718.7 385.1 L 716.1 388.1 L 713.2 390.7 L 710.0 392.9 L 706.3 394.8 L 702.1 396.4 L 697.2 397.7 L 691.4 398.7 L 684.2 399.4 L 674.1 399.9 L 642.5 400.0 L 610.9 399.9 L 600.8 399.4 L 593.6 398.7 L 587.8 397.7 L 582.9 396.4 L 578.7 394.8 L 575.0 392.9 L 571.8 390.7 L 568.9 388.1 L 566.3 385.1 L 564.1 381.8 L 562.1 378.0 L 560.4 373.7 L 558.9 368.9 L 557.7 363.3 L 556.7 356.9 L 556.0 349.3 L 555.4 339.8 L 555.1 326.5 L 555.0 285.0 L 555.1 243.5 L 555.4 230.2 L 556.0 220.7 L 556.7 213.1 L 557.7 206.7 L 558.9 201.1 L 560.4 196.3 L 562.1 192.0 L 564.1 188.2 L 566.3 184.9 L 568.9 181.9 L 571.8 179.3 L 575.0 177.1 L 578.7 175.2 L 582.9 173.6 L 587.8 172.3 L 593.6 171.3 L 600.8 170.6 L 610.9 170.1 L 642.5 170.0 L 674.1 170.1 L 684.2 170.6 L 691.4 171.3 L 697.2 172.3 L 702.1 173.6 L 706.3 175.2 L 710.0 177.1 L 713.2 179.3 L 716.1 181.9 L 718.7 184.9 L 720.9 188.2 L 722.9 192.0 L 724.6 196.3 L 726.1 201.1 L 727.3 206.7 L 728.3 213.1 L 729.0 220.7 L 729.6 230.2 L 729.9 243.5 Z" fill="none" stroke="#1c1c1c" stroke-width="2"/>
<use href="#ic-contexto" x="577" y="196" width="34" height="34" color="#f5569b"/>
<text x="577" y="266" font-family="'JetBrains Mono','Courier New',monospace" font-weight="700" font-size="14" letter-spacing="0.06em" fill="#141414" text-anchor="start">CARREGA O</text>
<text x="577" y="286" font-family="'JetBrains Mono','Courier New',monospace" font-weight="700" font-size="14" letter-spacing="0.06em" fill="#141414" text-anchor="start">CONTEXTO</text>
<rect x="577" y="302" width="30" height="2" fill="#d8d8d8"/>
<text x="577" y="326" font-family="'JetBrains Mono','Courier New',monospace" font-weight="500" font-size="10.5" letter-spacing="0.01em" fill="#6e6e6e" text-anchor="start">do cliente, antes de</text>
<text x="577" y="342" font-family="'JetBrains Mono','Courier New',monospace" font-weight="500" font-size="10.5" letter-spacing="0.01em" fill="#6e6e6e" text-anchor="start">escrever a primeira</text>
<text x="577" y="358" font-family="'JetBrains Mono','Courier New',monospace" font-weight="500" font-size="10.5" letter-spacing="0.01em" fill="#6e6e6e" text-anchor="start">linha</text>
<text x="710" y="196" font-family="'JetBrains Mono','Courier New',monospace" font-weight="700" font-size="13" letter-spacing="0.10em" fill="#c4c4c4" text-anchor="end">02</text>
<path d="M 945.0 285.0 L 944.9 326.5 L 944.6 339.8 L 944.0 349.3 L 943.3 356.9 L 942.3 363.3 L 941.1 368.9 L 939.6 373.7 L 937.9 378.0 L 935.9 381.8 L 933.7 385.1 L 931.1 388.1 L 928.2 390.7 L 925.0 392.9 L 921.3 394.8 L 917.1 396.4 L 912.2 397.7 L 906.4 398.7 L 899.2 399.4 L 889.1 399.9 L 857.5 400.0 L 825.9 399.9 L 815.8 399.4 L 808.6 398.7 L 802.8 397.7 L 797.9 396.4 L 793.7 394.8 L 790.0 392.9 L 786.8 390.7 L 783.9 388.1 L 781.3 385.1 L 779.1 381.8 L 777.1 378.0 L 775.4 373.7 L 773.9 368.9 L 772.7 363.3 L 771.7 356.9 L 771.0 349.3 L 770.4 339.8 L 770.1 326.5 L 770.0 285.0 L 770.1 243.5 L 770.4 230.2 L 771.0 220.7 L 771.7 213.1 L 772.7 206.7 L 773.9 201.1 L 775.4 196.3 L 777.1 192.0 L 779.1 188.2 L 781.3 184.9 L 783.9 181.9 L 786.8 179.3 L 790.0 177.1 L 793.7 175.2 L 797.9 173.6 L 802.8 172.3 L 808.6 171.3 L 815.8 170.6 L 825.9 170.1 L 857.5 170.0 L 889.1 170.1 L 899.2 170.6 L 906.4 171.3 L 912.2 172.3 L 917.1 173.6 L 921.3 175.2 L 925.0 177.1 L 928.2 179.3 L 931.1 181.9 L 933.7 184.9 L 935.9 188.2 L 937.9 192.0 L 939.6 196.3 L 941.1 201.1 L 942.3 206.7 L 943.3 213.1 L 944.0 220.7 L 944.6 230.2 L 944.9 243.5 Z" fill="none" stroke="#1c1c1c" stroke-width="2"/>
<use href="#ic-qa" x="792" y="196" width="34" height="34" color="#141414"/>
<text x="792" y="266" font-family="'JetBrains Mono','Courier New',monospace" font-weight="700" font-size="14" letter-spacing="0.06em" fill="#141414" text-anchor="start">PASSA PELA</text>
<text x="792" y="286" font-family="'JetBrains Mono','Courier New',monospace" font-weight="700" font-size="14" letter-spacing="0.06em" fill="#141414" text-anchor="start">CONFERÊNCIA</text>
<rect x="792" y="302" width="30" height="2" fill="#d8d8d8"/>
<text x="792" y="326" font-family="'JetBrains Mono','Courier New',monospace" font-weight="500" font-size="10.5" letter-spacing="0.01em" fill="#6e6e6e" text-anchor="start">antes de chegar</text>
<text x="792" y="342" font-family="'JetBrains Mono','Courier New',monospace" font-weight="500" font-size="10.5" letter-spacing="0.01em" fill="#6e6e6e" text-anchor="start">até você</text>
<text x="925" y="196" font-family="'JetBrains Mono','Courier New',monospace" font-weight="700" font-size="13" letter-spacing="0.10em" fill="#c4c4c4" text-anchor="end">03</text>
<path d="M 1160.0 285.0 L 1159.9 326.5 L 1159.6 339.8 L 1159.0 349.3 L 1158.3 356.9 L 1157.3 363.3 L 1156.1 368.9 L 1154.6 373.7 L 1152.9 378.0 L 1150.9 381.8 L 1148.7 385.1 L 1146.1 388.1 L 1143.2 390.7 L 1140.0 392.9 L 1136.3 394.8 L 1132.1 396.4 L 1127.2 397.7 L 1121.4 398.7 L 1114.2 399.4 L 1104.1 399.9 L 1072.5 400.0 L 1040.9 399.9 L 1030.8 399.4 L 1023.6 398.7 L 1017.8 397.7 L 1012.9 396.4 L 1008.7 394.8 L 1005.0 392.9 L 1001.8 390.7 L 998.9 388.1 L 996.3 385.1 L 994.1 381.8 L 992.1 378.0 L 990.4 373.7 L 988.9 368.9 L 987.7 363.3 L 986.7 356.9 L 986.0 349.3 L 985.4 339.8 L 985.1 326.5 L 985.0 285.0 L 985.1 243.5 L 985.4 230.2 L 986.0 220.7 L 986.7 213.1 L 987.7 206.7 L 988.9 201.1 L 990.4 196.3 L 992.1 192.0 L 994.1 188.2 L 996.3 184.9 L 998.9 181.9 L 1001.8 179.3 L 1005.0 177.1 L 1008.7 175.2 L 1012.9 173.6 L 1017.8 172.3 L 1023.6 171.3 L 1030.8 170.6 L 1040.9 170.1 L 1072.5 170.0 L 1104.1 170.1 L 1114.2 170.6 L 1121.4 171.3 L 1127.2 172.3 L 1132.1 173.6 L 1136.3 175.2 L 1140.0 177.1 L 1143.2 179.3 L 1146.1 181.9 L 1148.7 184.9 L 1150.9 188.2 L 1152.9 192.0 L 1154.6 196.3 L 1156.1 201.1 L 1157.3 206.7 L 1158.3 213.1 L 1159.0 220.7 L 1159.6 230.2 L 1159.9 243.5 Z" fill="none" stroke="#1c1c1c" stroke-width="2"/>
<use href="#ic-memoria" x="1007" y="196" width="34" height="34" color="#f5569b"/>
<text x="1007" y="266" font-family="'JetBrains Mono','Courier New',monospace" font-weight="700" font-size="14" letter-spacing="0.06em" fill="#141414" text-anchor="start">VIRA</text>
<text x="1007" y="286" font-family="'JetBrains Mono','Courier New',monospace" font-weight="700" font-size="14" letter-spacing="0.06em" fill="#141414" text-anchor="start">MEMÓRIA</text>
<rect x="1007" y="302" width="30" height="2" fill="#d8d8d8"/>
<text x="1007" y="326" font-family="'JetBrains Mono','Courier New',monospace" font-weight="500" font-size="10.5" letter-spacing="0.01em" fill="#6e6e6e" text-anchor="start">a próxima tarefa</text>
<text x="1007" y="342" font-family="'JetBrains Mono','Courier New',monospace" font-weight="500" font-size="10.5" letter-spacing="0.01em" fill="#6e6e6e" text-anchor="start">começa melhor que</text>
<text x="1007" y="358" font-family="'JetBrains Mono','Courier New',monospace" font-weight="500" font-size="10.5" letter-spacing="0.01em" fill="#6e6e6e" text-anchor="start">esta</text>
<text x="1140" y="196" font-family="'JetBrains Mono','Courier New',monospace" font-weight="700" font-size="13" letter-spacing="0.10em" fill="#c4c4c4" text-anchor="end">04</text>
<path d="M 515 285.0 L 541 285.0" stroke="#f5569b" stroke-width="2.4" fill="none"/>
<path d="M 541 278.0 L 555 285.0 L 541 292.0 Z" fill="#f5569b"/>
<circle cx="535.0" cy="285.0" r="3" fill="#f5569b"/>
<path d="M 730 285.0 L 756 285.0" stroke="#f5569b" stroke-width="2.4" fill="none"/>
<path d="M 756 278.0 L 770 285.0 L 756 292.0 Z" fill="#f5569b"/>
<circle cx="750.0" cy="285.0" r="3" fill="#f5569b"/>
<path d="M 945 285.0 L 971 285.0" stroke="#f5569b" stroke-width="2.4" fill="none"/>
<path d="M 971 278.0 L 985 285.0 L 971 292.0 Z" fill="#f5569b"/>
<circle cx="965.0" cy="285.0" r="3" fill="#f5569b"/>
<path d="M 1072.5 400 C 1072.5 494, 90.0 494, 90.0 475.0" fill="none" stroke="#f5569b" stroke-width="1.8" stroke-dasharray="2 7" stroke-linecap="round"/>
<path d="M 83.0 486.0 L 90.0 475.0 L 97.0 486.0" fill="none" stroke="#f5569b" stroke-width="1.8" stroke-linecap="round" stroke-linejoin="round"/>
<text x="581.25" y="508" font-family="'JetBrains Mono','Courier New',monospace" font-weight="700" font-size="11" letter-spacing="0.06em" fill="#f5569b" text-anchor="middle">A PRÓXIMA TAREFA COMEÇA MELHOR QUE ESTA</text>
</svg>